<svg width="139" height="41" viewBox="0 0 139 41" fill="none" xmlns="http://www.w3.org/2000/svg">
<path d="M137.692 35.8869C137.692 38.0185 135.93 39.7452 133.749 39.7452H4.71725C2.53807 39.7452 0.769226 38.0185 0.769226 35.8869V5.118C0.769226 2.98736 2.53807 1.25464 4.71725 1.25464H133.748C135.93 1.25464 137.691 2.98736 137.691 5.118L137.692 35.8869Z" fill="#0A090B"/>
<path d="M30.9005 20.284C30.8707 17.061 33.6071 15.493 33.7323 15.42C32.1825 13.217 29.7805 12.916 28.9364 12.892C26.9189 12.685 24.962 14.069 23.9343 14.069C22.8861 14.069 21.3036 12.912 19.5979 12.946C17.403 12.979 15.3497 14.218 14.2236 16.142C11.8995 20.065 13.6328 25.83 15.8595 29.001C16.9733 30.554 18.2748 32.288 19.9784 32.227C21.6451 32.16 22.2677 31.191 24.2789 31.191C26.2718 31.191 26.8564 32.227 28.5938 32.188C30.3825 32.16 31.5087 30.628 32.5836 29.061C33.8707 27.281 34.3877 25.528 34.4082 25.438C34.3661 25.424 30.9343 24.147 30.9005 20.284Z" fill="white"/>
<path d="M27.6184 10.806C28.5148 9.71304 29.1282 8.22604 28.9579 6.71704C27.6605 6.77304 26.0379 7.59204 25.1036 8.66104C24.2769 9.60304 23.5384 11.147 23.7292 12.599C25.1866 12.705 26.683 11.882 27.6184 10.806Z" fill="white"/>
<path d="M50.3077 10.5089C50.3077 11.6859 49.9456 12.5719 49.2226 13.1669C48.5528 13.7159 47.601 13.9909 46.3682 13.9909C45.7569 13.9909 45.2338 13.9649 44.7959 13.9129V7.48195C45.3672 7.39195 45.9826 7.34595 46.6472 7.34595C47.8215 7.34595 48.7067 7.59495 49.3036 8.09295C49.9723 8.65595 50.3077 9.46095 50.3077 10.5089ZM49.1744 10.5379C49.1744 9.77495 48.9672 9.18995 48.5528 8.78195C48.1385 8.37495 47.5333 8.17095 46.7364 8.17095C46.398 8.17095 46.1097 8.19295 45.8708 8.23895V13.1279C46.0031 13.1479 46.2451 13.1569 46.5969 13.1569C47.4195 13.1569 48.0544 12.9339 48.5015 12.4879C48.9487 12.0419 49.1744 11.3919 49.1744 10.5379Z" fill="white"/>
<path d="M56.3169 11.5368C56.3169 12.2618 56.1046 12.8558 55.68 13.3218C55.2349 13.8008 54.6451 14.0398 53.9087 14.0398C53.199 14.0398 52.6339 13.8108 52.2123 13.3508C51.7918 12.8918 51.5815 12.3128 51.5815 11.6148C51.5815 10.8848 51.798 10.2858 52.2328 9.8208C52.6677 9.3558 53.2523 9.1228 53.9887 9.1228C54.6985 9.1228 55.2687 9.3518 55.7005 9.8108C56.1108 10.2568 56.3169 10.8328 56.3169 11.5368ZM55.2021 11.5708C55.2021 11.1358 55.1056 10.7628 54.9139 10.4518C54.6882 10.0758 54.3672 9.8878 53.9498 9.8878C53.518 9.8878 53.1897 10.0758 52.9641 10.4518C52.7713 10.7628 52.6759 11.1418 52.6759 11.5898C52.6759 12.0248 52.7723 12.3978 52.9641 12.7088C53.1969 13.0848 53.521 13.2728 53.9395 13.2728C54.3497 13.2728 54.6718 13.0818 54.9036 12.6988C55.1026 12.3818 55.2021 12.0058 55.2021 11.5708Z" fill="white"/>
<path d="M64.3744 9.21899L62.8616 13.933H61.877L61.2503 11.886C61.0913 11.375 60.9621 10.867 60.8616 10.363H60.8421C60.7487 10.881 60.6195 11.388 60.4534 11.886L59.7877 13.933H58.7918L57.3693 9.21899H58.4739L59.0205 11.46C59.1528 11.99 59.2616 12.495 59.3487 12.973H59.3682C59.4482 12.579 59.5805 12.077 59.7672 11.47L60.4534 9.21999H61.3293L61.9867 11.422C62.1457 11.959 62.2749 12.476 62.3744 12.974H62.4041C62.477 12.489 62.5867 11.972 62.7323 11.422L63.319 9.21999H64.3744V9.21899Z" fill="white"/>
<path d="M69.9467 13.9329H68.8718V11.2329C68.8718 10.4009 68.5477 9.98487 67.8974 9.98487C67.5785 9.98487 67.321 10.0989 67.121 10.3279C66.9231 10.5569 66.8226 10.8269 66.8226 11.1359V13.9319H65.7477V10.5659C65.7477 10.1519 65.7344 9.70287 65.7087 9.21687H66.6534L66.7036 9.95387H66.7334C66.8585 9.72487 67.0451 9.53587 67.2903 9.38487C67.5816 9.20887 67.9077 9.11987 68.2646 9.11987C68.7159 9.11987 69.0913 9.26187 69.3898 9.54687C69.761 9.89587 69.9467 10.4169 69.9467 11.1089V13.9329Z" fill="white"/>
<path d="M72.9108 13.9329H71.8369V7.05591H72.9108V13.9329Z" fill="white"/>
<path d="M79.239 11.5368C79.239 12.2618 79.0267 12.8558 78.6021 13.3218C78.1569 13.8008 77.5662 14.0398 76.8308 14.0398C76.12 14.0398 75.5549 13.8108 75.1344 13.3508C74.7139 12.8918 74.5036 12.3128 74.5036 11.6148C74.5036 10.8848 74.72 10.2858 75.1549 9.8208C75.5898 9.3558 76.1744 9.1228 76.9098 9.1228C77.6205 9.1228 78.1898 9.3518 78.6226 9.8108C79.0328 10.2568 79.239 10.8328 79.239 11.5368ZM78.1231 11.5708C78.1231 11.1358 78.0267 10.7628 77.8349 10.4518C77.6103 10.0758 77.2882 9.8878 76.8718 9.8878C76.439 9.8878 76.1108 10.0758 75.8862 10.4518C75.6933 10.7628 75.598 11.1418 75.598 11.5898C75.598 12.0248 75.6944 12.3978 75.8862 12.7088C76.119 13.0848 76.4431 13.2728 76.8616 13.2728C77.2718 13.2728 77.5928 13.0818 77.8246 12.6988C78.0246 12.3818 78.1231 12.0058 78.1231 11.5708Z" fill="white"/>
<path d="M84.441 13.9328H83.4759L83.3959 13.3898H83.3662C83.0359 13.8228 82.5651 14.0398 81.9538 14.0398C81.4974 14.0398 81.1282 13.8968 80.8503 13.6128C80.598 13.3548 80.4718 13.0338 80.4718 12.6528C80.4718 12.0768 80.718 11.6378 81.2133 11.3338C81.7077 11.0298 82.4031 10.8808 83.2985 10.8878V10.7998C83.2985 10.1788 82.9641 9.8688 82.2944 9.8688C81.8174 9.8688 81.3969 9.9858 81.0339 10.2178L80.8154 9.5298C81.2646 9.2588 81.8195 9.1228 82.4739 9.1228C83.7374 9.1228 84.3713 9.7728 84.3713 11.0728V12.8088C84.3713 13.2798 84.3949 13.6548 84.441 13.9328ZM83.3251 12.3128V11.5858C82.1395 11.5658 81.5467 11.8828 81.5467 12.5358C81.5467 12.7818 81.6144 12.9658 81.7528 13.0888C81.8913 13.2118 82.0677 13.2728 82.278 13.2728C82.5138 13.2728 82.7344 13.1998 82.9354 13.0548C83.1374 12.9088 83.2615 12.7238 83.3077 12.4968C83.319 12.4458 83.3251 12.3838 83.3251 12.3128Z" fill="white"/>
<path d="M90.5487 13.9329H89.5949L89.5446 13.1759H89.5149C89.2103 13.7519 88.6913 14.0399 87.9621 14.0399C87.3795 14.0399 86.8944 13.8169 86.5098 13.3709C86.1251 12.9249 85.9333 12.3459 85.9333 11.6349C85.9333 10.8719 86.1416 10.2539 86.56 9.78191C86.9651 9.34191 87.4615 9.12191 88.0523 9.12191C88.7015 9.12191 89.1559 9.33491 89.4144 9.76191H89.4349V7.05591H90.5108V12.6629C90.5108 13.1219 90.5231 13.5449 90.5487 13.9329ZM89.4349 11.9449V11.1589C89.4349 11.0229 89.4246 10.9129 89.4051 10.8289C89.3446 10.5769 89.2144 10.3649 89.0164 10.1939C88.8164 10.0229 88.5754 9.93691 88.2974 9.93691C87.8964 9.93691 87.5826 10.0919 87.3518 10.4029C87.1231 10.7139 87.0072 11.1109 87.0072 11.5959C87.0072 12.0619 87.1169 12.4399 87.3374 12.7309C87.5703 13.0409 87.8841 13.1959 88.2769 13.1959C88.6297 13.1959 88.9118 13.0669 89.1262 12.8079C89.3333 12.5689 89.4349 12.2809 89.4349 11.9449Z" fill="white"/>
<path d="M99.7415 11.5368C99.7415 12.2618 99.5292 12.8558 99.1046 13.3218C98.6595 13.8008 98.0708 14.0398 97.3333 14.0398C96.6246 14.0398 96.0595 13.8108 95.6369 13.3508C95.2164 12.8918 95.0062 12.3128 95.0062 11.6148C95.0062 10.8848 95.2226 10.2858 95.6574 9.8208C96.0923 9.3558 96.6769 9.1228 97.4144 9.1228C98.1231 9.1228 98.6944 9.3518 99.1251 9.8108C99.5354 10.2568 99.7415 10.8328 99.7415 11.5368ZM98.6277 11.5708C98.6277 11.1358 98.5313 10.7628 98.3395 10.4518C98.1128 10.0758 97.7928 9.8878 97.3744 9.8878C96.9436 9.8878 96.6154 10.0758 96.3887 10.4518C96.1959 10.7628 96.1005 11.1418 96.1005 11.5898C96.1005 12.0248 96.1969 12.3978 96.3887 12.7088C96.6215 13.0848 96.9457 13.2728 97.3641 13.2728C97.7744 13.2728 98.0974 13.0818 98.3292 12.6988C98.5272 12.3818 98.6277 12.0058 98.6277 11.5708Z" fill="white"/>
<path d="M105.521 13.9329H104.447V11.2329C104.447 10.4009 104.123 9.98487 103.472 9.98487C103.153 9.98487 102.895 10.0989 102.696 10.3279C102.497 10.5569 102.398 10.8269 102.398 11.1359V13.9319H101.322V10.5659C101.322 10.1519 101.31 9.70287 101.284 9.21687H102.228L102.278 9.95387H102.308C102.434 9.72487 102.621 9.53587 102.865 9.38487C103.157 9.20887 103.482 9.11987 103.84 9.11987C104.29 9.11987 104.666 9.26187 104.964 9.54687C105.336 9.89587 105.521 10.4169 105.521 11.1089V13.9329Z" fill="white"/>
<path d="M112.755 10.0039H111.571V12.2939C111.571 12.8759 111.782 13.1669 112.198 13.1669C112.391 13.1669 112.551 13.1509 112.677 13.1179L112.705 13.9129C112.492 13.9909 112.213 14.0299 111.87 14.0299C111.445 14.0299 111.115 13.9039 110.876 13.6519C110.636 13.3999 110.517 12.9759 110.517 12.3809V10.0039H109.81V9.21892H110.517V8.35492L111.57 8.04492V9.21792H112.754V10.0039H112.755Z" fill="white"/>
<path d="M118.445 13.9329H117.369V11.2529C117.369 10.4079 117.045 9.98491 116.396 9.98491C115.897 9.98491 115.557 10.2299 115.37 10.7199C115.338 10.8229 115.32 10.9489 115.32 11.0969V13.9319H114.246V7.05591H115.32V9.89691H115.341C115.679 9.37991 116.164 9.12191 116.793 9.12191C117.238 9.12191 117.606 9.26391 117.898 9.54891C118.263 9.90391 118.445 10.4319 118.445 11.1299V13.9329Z" fill="white"/>
<path d="M124.315 11.353C124.315 11.541 124.3 11.699 124.275 11.828H121.051C121.066 12.294 121.219 12.649 121.518 12.895C121.791 13.115 122.143 13.225 122.573 13.225C123.05 13.225 123.485 13.151 123.877 13.002L124.045 13.73C123.587 13.924 123.047 14.021 122.423 14.021C121.674 14.021 121.084 13.806 120.657 13.376C120.229 12.946 120.016 12.369 120.016 11.645C120.016 10.934 120.214 10.342 120.613 9.87001C121.03 9.36601 121.593 9.11401 122.304 9.11401C122.999 9.11401 123.527 9.36601 123.884 9.87001C124.172 10.27 124.315 10.765 124.315 11.353ZM123.289 11.082C123.297 10.771 123.227 10.503 123.081 10.277C122.894 9.98601 122.61 9.84001 122.226 9.84001C121.875 9.84001 121.589 9.98201 121.37 10.267C121.192 10.494 121.086 10.765 121.051 11.082H123.289Z" fill="white"/>
<path d="M55.0205 32.004H52.6913L51.4154 28.095H46.9805L45.7651 32.004H43.4974L47.8913 18.696H50.6051L55.0205 32.004ZM51.0308 26.455L49.8769 22.98C49.7549 22.625 49.5262 21.789 49.1887 20.473H49.1477C49.0133 21.039 48.7969 21.875 48.4995 22.98L47.3662 26.455H51.0308Z" fill="white"/>
<path d="M66.32 27.0879C66.32 28.7199 65.8677 30.0099 64.9631 30.9569C64.1528 31.7999 63.1467 32.2209 61.9456 32.2209C60.6492 32.2209 59.7179 31.7669 59.1508 30.8589H59.1097V35.9139H56.9231V25.5669C56.9231 24.5409 56.8954 23.4879 56.842 22.4079H58.7651L58.8872 23.9289H58.9282C59.6574 22.7829 60.7641 22.2109 62.2492 22.2109C63.4102 22.2109 64.3795 22.6579 65.1549 23.5529C65.9323 24.4489 66.32 25.6269 66.32 27.0879ZM64.0923 27.1659C64.0923 26.2319 63.8769 25.4619 63.4441 24.8559C62.9713 24.2239 62.3364 23.9079 61.5405 23.9079C61.001 23.9079 60.5108 24.0839 60.0728 24.4309C59.6338 24.7809 59.3467 25.2379 59.2123 25.8039C59.1446 26.0679 59.1108 26.2839 59.1108 26.4539V28.0539C59.1108 28.7519 59.3302 29.3409 59.7692 29.8219C60.2082 30.3029 60.7785 30.5429 61.48 30.5429C62.3036 30.5429 62.9446 30.2329 63.4031 29.6149C63.8626 28.9959 64.0923 28.1799 64.0923 27.1659Z" fill="white"/>
<path d="M77.64 27.0879C77.64 28.7199 77.1877 30.0099 76.2821 30.9569C75.4728 31.7999 74.4667 32.2209 73.2656 32.2209C71.9692 32.2209 71.038 31.7669 70.4718 30.8589H70.4308V35.9139H68.2441V25.5669C68.2441 24.5409 68.2164 23.4879 68.1631 22.4079H70.0862L70.2082 23.9289H70.2492C70.9774 22.7829 72.0841 22.2109 73.5703 22.2109C74.7303 22.2109 75.6995 22.6579 76.4769 23.5529C77.2513 24.4489 77.64 25.6269 77.64 27.0879ZM75.4123 27.1659C75.4123 26.2319 75.1959 25.4619 74.7631 24.8559C74.2903 24.2239 73.6574 23.9079 72.8605 23.9079C72.32 23.9079 71.8308 24.0839 71.3918 24.4309C70.9528 24.7809 70.6667 25.2379 70.5323 25.8039C70.4656 26.0679 70.4308 26.2839 70.4308 26.4539V28.0539C70.4308 28.7519 70.6503 29.3409 71.0872 29.8219C71.5262 30.3019 72.0964 30.5429 72.8 30.5429C73.6236 30.5429 74.2646 30.2329 74.7231 29.6149C75.1826 28.9959 75.4123 28.1799 75.4123 27.1659Z" fill="white"/>
<path d="M90.2964 28.272C90.2964 29.404 89.8934 30.325 89.0841 31.036C88.1949 31.813 86.9569 32.201 85.3662 32.201C83.8975 32.201 82.72 31.925 81.8287 31.372L82.3354 29.595C83.2954 30.161 84.3487 30.445 85.4964 30.445C86.32 30.445 86.961 30.263 87.4216 29.901C87.88 29.539 88.1087 29.053 88.1087 28.447C88.1087 27.907 87.92 27.452 87.5416 27.083C87.1651 26.714 86.5364 26.371 85.6585 26.054C83.2687 25.185 82.0749 23.912 82.0749 22.238C82.0749 21.144 82.4934 20.247 83.3313 19.549C84.1662 18.85 85.28 18.501 86.6728 18.501C87.9149 18.501 88.9467 18.712 89.7703 19.133L89.2236 20.871C88.4544 20.463 87.5846 20.259 86.6113 20.259C85.8421 20.259 85.241 20.444 84.8103 20.812C84.4462 21.141 84.2636 21.542 84.2636 22.017C84.2636 22.543 84.4718 22.978 84.8903 23.32C85.2544 23.636 85.9159 23.978 86.8759 24.347C88.0503 24.808 88.9128 25.347 89.4677 25.965C90.0205 26.581 90.2964 27.352 90.2964 28.272Z" fill="white"/>
<path d="M97.5261 24.0078H95.1159V28.6668C95.1159 29.8518 95.5405 30.4438 96.3918 30.4438C96.7825 30.4438 97.1066 30.4108 97.3631 30.3448L97.4236 31.9638C96.9928 32.1208 96.4256 32.1998 95.7231 32.1998C94.8595 32.1998 94.1846 31.9428 93.6974 31.4298C93.2123 30.9158 92.9682 30.0538 92.9682 28.8428V24.0058H91.5323V22.4058H92.9682V20.6488L95.1159 20.0168V22.4058H97.5261V24.0078Z" fill="white"/>
<path d="M108.401 27.1269C108.401 28.6019 107.968 29.8129 107.105 30.7599C106.199 31.7349 104.997 32.2209 103.498 32.2209C102.054 32.2209 100.905 31.7539 100.047 30.8199C99.1897 29.8859 98.761 28.7069 98.761 27.2859C98.761 25.7989 99.202 24.5809 100.087 23.6339C100.97 22.6859 102.162 22.2119 103.66 22.2119C105.105 22.2119 106.267 22.6789 107.144 23.6139C107.983 24.5209 108.401 25.6919 108.401 27.1269ZM106.132 27.1959C106.132 26.3109 105.938 25.5519 105.546 24.9189C105.087 24.1529 104.432 23.7709 103.583 23.7709C102.704 23.7709 102.036 24.1539 101.577 24.9189C101.185 25.5529 100.991 26.3239 100.991 27.2359C100.991 28.1209 101.185 28.8799 101.577 29.5119C102.05 30.2779 102.711 30.6599 103.563 30.6599C104.398 30.6599 105.053 30.2699 105.526 29.4919C105.929 28.8469 106.132 28.0799 106.132 27.1959Z" fill="white"/>
<path d="M115.509 24.2829C115.292 24.2439 115.062 24.2239 114.819 24.2239C114.05 24.2239 113.455 24.5069 113.037 25.0739C112.673 25.5739 112.49 26.2059 112.49 26.9689V32.0039H110.305L110.325 25.4299C110.325 24.3239 110.297 23.3169 110.243 22.4089H112.148L112.228 24.2449H112.288C112.519 23.6139 112.883 23.1059 113.382 22.7249C113.869 22.3819 114.395 22.2109 114.962 22.2109C115.164 22.2109 115.347 22.2249 115.509 22.2499V24.2829Z" fill="white"/>
<path d="M125.288 26.7519C125.288 27.1339 125.263 27.4559 125.208 27.7189H118.648C118.674 28.6669 118.991 29.3919 119.6 29.8919C120.153 30.3389 120.868 30.5629 121.746 30.5629C122.717 30.5629 123.603 30.4119 124.4 30.1089L124.743 31.5889C123.811 31.9849 122.712 32.1819 121.443 32.1819C119.917 32.1819 118.719 31.7439 117.847 30.8689C116.977 29.9939 116.542 28.8189 116.542 27.3449C116.542 25.8979 116.947 24.6929 117.758 23.7319C118.607 22.7059 119.755 22.1929 121.199 22.1929C122.617 22.1929 123.691 22.7059 124.42 23.7319C124.998 24.5469 125.288 25.5549 125.288 26.7519ZM123.203 26.1989C123.217 25.5669 123.075 25.0209 122.778 24.5599C122.4 23.9669 121.818 23.6709 121.036 23.6709C120.321 23.6709 119.739 23.9599 119.295 24.5399C118.931 25.0009 118.715 25.5539 118.648 26.1979H123.203V26.1989Z" fill="white"/>
</svg>
