<svg width="139" height="41" viewBox="0 0 139 41" fill="none" xmlns="http://www.w3.org/2000/svg">
<path d="M133.795 40.5H5.58975C2.77052 40.5 0.461548 38.2487 0.461548 35.5V5.49999C0.461548 2.75124 2.77052 0.499988 5.58975 0.499988H133.795C136.614 0.499988 138.923 2.75124 138.923 5.49999V35.5C138.923 38.2487 136.614 40.5 133.795 40.5Z" fill="#0A090B"/>
<path d="M11.1655 8.03868C10.8642 8.34618 10.6898 8.82493 10.6898 9.44493V31.5599C10.6898 32.1799 10.8642 32.6587 11.1655 32.9662L11.2398 33.0337L23.9501 20.6462V20.3537L11.2398 7.96619L11.1655 8.03868Z" fill="url(#paint0_linear_243_1995)"/>
<path d="M28.178 24.7776L23.946 20.6463V20.3538L28.1832 16.2226L28.278 16.2763L33.296 19.0601C34.728 19.8501 34.728 21.1501 33.296 21.9451L28.278 24.7238L28.178 24.7776Z" fill="url(#paint1_linear_243_1995)"/>
<path d="M28.2802 24.7235L23.9482 20.4997L11.1636 32.966C11.6392 33.4535 12.4149 33.5122 13.2969 33.0247L28.2802 24.7235Z" fill="url(#paint2_linear_243_1995)"/>
<path d="M28.2802 16.2763L13.2969 7.975C12.4149 7.4925 11.6392 7.55125 11.1636 8.03875L23.9482 20.5L28.2802 16.2763Z" fill="url(#paint3_linear_243_1995)"/>
<path d="M49.0967 10.7437C49.0967 11.5787 48.8403 12.2475 48.3352 12.7462C47.7544 13.3375 46.998 13.635 46.0711 13.635C45.1852 13.635 44.4288 13.3325 43.8083 12.7362C43.1865 12.1312 42.8762 11.3887 42.8762 10.5C42.8762 9.61124 43.1865 8.86874 43.8083 8.26874C44.4288 7.66749 45.1852 7.36499 46.0711 7.36499C46.5121 7.36499 46.9326 7.45374 47.3339 7.61874C47.7339 7.78499 48.0596 8.00999 48.2954 8.28749L47.7596 8.81499C47.348 8.34124 46.7878 8.10749 46.0711 8.10749C45.4249 8.10749 44.8647 8.32749 44.389 8.77124C43.9185 9.21624 43.6826 9.79249 43.6826 10.5C43.6826 11.2075 43.9185 11.7887 44.389 12.2337C44.8647 12.6725 45.4249 12.8975 46.0711 12.8975C46.757 12.8975 47.3339 12.6725 47.789 12.2287C48.089 11.935 48.2596 11.53 48.3044 11.0125H46.0711V10.29H49.0506C49.0865 10.4462 49.0967 10.5975 49.0967 10.7437Z" fill="white" stroke="white" strokeWidth="0.16" stroke-miterlimit="10"/>
<path d="M53.822 8.23869H51.0233V10.1387H53.5464V10.8612H51.0233V12.7612H53.822V13.4974H50.231V7.50244H53.822V8.23869Z" fill="white" stroke="white" strokeWidth="0.16" stroke-miterlimit="10"/>
<path d="M57.157 13.4974H56.3647V8.23869H54.6481V7.50244H58.875V8.23869H57.157V13.4974Z" fill="white" stroke="white" strokeWidth="0.16" stroke-miterlimit="10"/>
<path d="M61.9367 13.4974V7.50244H62.7277V13.4974H61.9367Z" fill="white" stroke="white" strokeWidth="0.16" stroke-miterlimit="10"/>
<path d="M66.2366 13.4974H65.4507V8.23869H63.7276V7.50244H67.9596V8.23869H66.2366V13.4974Z" fill="white" stroke="white" strokeWidth="0.16" stroke-miterlimit="10"/>
<path d="M75.9577 12.7262C75.3513 13.3325 74.6001 13.635 73.7039 13.635C72.8026 13.635 72.0513 13.3325 71.4449 12.7262C70.8398 12.1212 70.5385 11.3787 70.5385 10.5C70.5385 9.62124 70.8398 8.87874 71.4449 8.27374C72.0513 7.66749 72.8026 7.36499 73.7039 7.36499C74.5949 7.36499 75.3462 7.66749 75.9526 8.27874C76.5629 8.88874 76.8642 9.62624 76.8642 10.5C76.8642 11.3787 76.5629 12.1212 75.9577 12.7262ZM72.0308 12.2237C72.4872 12.6725 73.0424 12.8975 73.7039 12.8975C74.3603 12.8975 74.9206 12.6725 75.3718 12.2237C75.827 11.775 76.0577 11.1987 76.0577 10.5C76.0577 9.80124 75.827 9.22499 75.3718 8.77624C74.9206 8.32749 74.3603 8.10249 73.7039 8.10249C73.0424 8.10249 72.4872 8.32749 72.0308 8.77624C71.5757 9.22499 71.3449 9.80124 71.3449 10.5C71.3449 11.1987 71.5757 11.775 72.0308 12.2237Z" fill="white" stroke="white" strokeWidth="0.16" stroke-miterlimit="10"/>
<path d="M77.9734 13.4974V7.50244H78.9349L81.9247 12.1649H81.9593L81.9247 11.0124V7.50244H82.7157V13.4974H81.8901L78.7593 8.60494H78.7247L78.7593 9.76244V13.4974H77.9734Z" fill="white" stroke="white" strokeWidth="0.16" stroke-miterlimit="10"/>
<path d="M70.3411 22.2524C67.9321 22.2524 65.9642 24.0399 65.9642 26.5061C65.9642 28.9524 67.9321 30.7586 70.3411 30.7586C72.7552 30.7586 74.7232 28.9524 74.7232 26.5061C74.7232 24.0399 72.7552 22.2524 70.3411 22.2524ZM70.3411 29.0836C69.0193 29.0836 67.8821 28.0199 67.8821 26.5061C67.8821 24.9724 69.0193 23.9274 70.3411 23.9274C71.6629 23.9274 72.8052 24.9724 72.8052 26.5061C72.8052 28.0199 71.6629 29.0836 70.3411 29.0836ZM60.7911 22.2524C58.377 22.2524 56.4142 24.0399 56.4142 26.5061C56.4142 28.9524 58.377 30.7586 60.7911 30.7586C63.2039 30.7586 65.168 28.9524 65.168 26.5061C65.168 24.0399 63.2039 22.2524 60.7911 22.2524ZM60.7911 29.0836C59.468 29.0836 58.327 28.0199 58.327 26.5061C58.327 24.9724 59.468 23.9274 60.7911 23.9274C62.1129 23.9274 63.2501 24.9724 63.2501 26.5061C63.2501 28.0199 62.1129 29.0836 60.7911 29.0836ZM49.427 23.5561V25.3636H53.8539C53.7245 26.3736 53.3783 27.1161 52.8475 27.6336C52.2014 28.2586 51.195 28.9524 49.427 28.9524C46.7027 28.9524 44.5693 26.8086 44.5693 24.1524C44.5693 21.4961 46.7027 19.3524 49.427 19.3524C50.9001 19.3524 51.9719 19.9136 52.7629 20.6411L54.0693 19.3674C52.9629 18.3374 51.4911 17.5461 49.427 17.5461C45.6911 17.5461 42.5514 20.5099 42.5514 24.1524C42.5514 27.7949 45.6911 30.7586 49.427 30.7586C51.4463 30.7586 52.9629 30.1136 54.1552 28.9036C55.377 27.7124 55.7578 26.0374 55.7578 24.6849C55.7578 24.2649 55.7219 23.8786 55.6578 23.5561H49.427ZM95.8962 24.9574C95.536 24.0061 94.4244 22.2524 92.1603 22.2524C89.9168 22.2524 88.0488 23.9761 88.0488 26.5061C88.0488 28.8886 89.8975 30.7586 92.3757 30.7586C94.3796 30.7586 95.536 29.5674 96.0116 28.8736L94.5244 27.9074C94.0283 28.6149 93.3527 29.0836 92.3757 29.0836C91.4052 29.0836 90.7091 28.6499 90.2629 27.7949L96.0975 25.4411L95.8962 24.9574ZM89.9475 26.3736C89.8975 24.7336 91.2539 23.8936 92.2257 23.8936C92.9873 23.8936 93.6334 24.2649 93.8488 24.7961L89.9475 26.3736ZM85.2052 30.4999H87.1232V17.9999H85.2052V30.4999ZM82.0642 23.1999H82.0001C81.5693 22.7024 80.7475 22.2524 79.7065 22.2524C77.5219 22.2524 75.5245 24.1224 75.5245 26.5199C75.5245 28.9036 77.5219 30.7586 79.7065 30.7586C80.7475 30.7586 81.5693 30.3049 82.0001 29.7924H82.0642V30.4024C82.0642 32.0286 81.1732 32.9024 79.736 32.9024C78.5642 32.9024 77.8373 32.0774 77.5373 31.3836L75.8693 32.0624C76.3501 33.1899 77.6232 34.5774 79.736 34.5774C81.9847 34.5774 83.8821 33.2874 83.8821 30.1486V22.5111H82.0642V23.1999ZM79.8706 29.0836C78.5488 29.0836 77.4424 28.0049 77.4424 26.5199C77.4424 25.0211 78.5488 23.9274 79.8706 23.9274C81.1732 23.9274 82.2001 25.0211 82.2001 26.5199C82.2001 28.0049 81.1732 29.0836 79.8706 29.0836ZM104.876 17.9999H100.289V30.4999H102.201V25.7636H104.876C107 25.7636 109.083 24.2649 109.083 21.8811C109.083 19.4986 106.995 17.9999 104.876 17.9999ZM104.926 24.0249H102.201V19.7386H104.926C106.354 19.7386 107.169 20.8949 107.169 21.8811C107.169 22.8486 106.354 24.0249 104.926 24.0249ZM116.75 22.2286C115.368 22.2286 113.931 22.8236 113.34 24.1424L115.037 24.8361C115.403 24.1424 116.074 23.9174 116.785 23.9174C117.777 23.9174 118.783 24.4986 118.799 25.5249V25.6561C118.453 25.4611 117.712 25.1724 116.8 25.1724C114.972 25.1724 113.109 26.1536 113.109 27.9849C113.109 29.6599 114.606 30.7386 116.29 30.7386C117.577 30.7386 118.287 30.1724 118.733 29.5136H118.799V30.4799H120.646V25.6849C120.646 23.4686 118.949 22.2286 116.75 22.2286ZM116.519 29.0786C115.894 29.0786 115.022 28.7761 115.022 28.0199C115.022 27.0524 116.109 26.6811 117.05 26.6811C117.892 26.6811 118.287 26.8624 118.799 27.1011C118.649 28.2586 117.627 29.0786 116.519 29.0786ZM127.377 22.5024L125.178 27.9211H125.113L122.84 22.5024H120.777L124.192 30.0749L122.244 34.2886H124.242L129.505 22.5024H127.377ZM110.135 30.4999H112.053V17.9999H110.135V30.4999Z" fill="white"/>
<defs>
<linearGradient id="paint0_linear_243_1995" x1="22.8216" y1="31.7902" x2="6.04453" y2="14.583" gradientUnits="userSpaceOnUse">
<stop stop-color="#00A0FF"/>
<stop offset="0.0066" stop-color="#00A1FF"/>
<stop offset="0.2601" stop-color="#00BEFF"/>
<stop offset="0.5122" stop-color="#00D2FF"/>
<stop offset="0.7604" stop-color="#00DFFF"/>
<stop offset="1" stop-color="#00E3FF"/>
</linearGradient>
<linearGradient id="paint1_linear_243_1995" x1="35.1608" y1="20.4987" x2="10.3434" y2="20.4987" gradientUnits="userSpaceOnUse">
<stop stop-color="#FFE000"/>
<stop offset="0.4087" stop-color="#FFBD00"/>
<stop offset="0.7754" stop-color="#FFA500"/>
<stop offset="1" stop-color="#FF9C00"/>
</linearGradient>
<linearGradient id="paint2_linear_243_1995" x1="25.9246" y1="18.2036" x2="3.17359" y2="-5.13074" gradientUnits="userSpaceOnUse">
<stop stop-color="#FF3A44"/>
<stop offset="1" stop-color="#C31162"/>
</linearGradient>
<linearGradient id="paint3_linear_243_1995" x1="7.94542" y1="40.3238" x2="18.1048" y2="29.9041" gradientUnits="userSpaceOnUse">
<stop stop-color="#32A071"/>
<stop offset="0.0685" stop-color="#2DA771"/>
<stop offset="0.4762" stop-color="#15CF74"/>
<stop offset="0.8009" stop-color="#06E775"/>
<stop offset="1" stop-color="#00F076"/>
</linearGradient>
</defs>
</svg>
